<svg width="18" height="18" viewBox="0 0 18 18" fill="none" xmlns="http://www.w3.org/2000/svg">
<path d="M9 1.5C5.7 1.5 3 4.2 3 7.5C3 11.55 8.25 16.125 8.475 16.35C8.625 16.425 8.85 16.5 9 16.5C9.15 16.5 9.375 16.425 9.525 16.35C9.75 16.125 15 11.55 15 7.5C15 4.2 12.3 1.5 9 1.5ZM9 14.775C7.425 13.275 4.5 10.05 4.5 7.5C4.5 5.025 6.525 3 9 3C11.475 3 13.5 5.025 13.5 7.5C13.5 9.975 10.575 13.275 9 14.775ZM9 4.5C7.35 4.5 6 5.85 6 7.5C6 9.15 7.35 10.5 9 10.5C10.65 10.5 12 9.15 12 7.5C12 5.85 10.65 4.5 9 4.5ZM9 9C8.175 9 7.5 8.325 7.5 7.5C7.5 6.675 8.175 6 9 6C9.825 6 10.5 6.675 10.5 7.5C10.5 8.325 9.825 9 9 9Z" fill="currentColor"/>
</svg>
