<svg width="16" height="16" viewBox="0 0 16 16" fill="none" xmlns="http://www.w3.org/2000/svg">
<path d="M14.6667 11.3332V9.33317M14.6667 9.33317H1.33333M14.6667 9.33317H8V5.99984H12.6667C13.1971 5.99984 13.7058 6.21055 14.0809 6.58562C14.456 6.9607 14.6667 7.4694 14.6667 7.99984V9.33317ZM1.33333 5.33317V11.3332M3.33333 5.99984C3.33333 6.35346 3.47381 6.6926 3.72386 6.94265C3.97391 7.19269 4.31304 7.33317 4.66667 7.33317C5.02029 7.33317 5.35943 7.19269 5.60948 6.94265C5.85952 6.6926 6 6.35346 6 5.99984C6 5.64622 5.85952 5.30708 5.60948 5.05703C5.35943 4.80698 5.02029 4.6665 4.66667 4.6665C4.31304 4.6665 3.97391 4.80698 3.72386 5.05703C3.47381 5.30708 3.33333 5.64622 3.33333 5.99984Z" stroke="currentColor" stroke-width="1.2" stroke-linecap="round" stroke-linejoin="round"/>
</svg>
