<svg width="28" height="28" viewBox="0 0 28 28" fill="none" xmlns="http://www.w3.org/2000/svg">
<path d="M14.2001 25.1668C12.6554 25.1668 11.2037 24.8735 9.84512 24.2869C8.48651 23.7003 7.3047 22.9048 6.2997 21.9006C5.2947 20.8963 4.49926 19.7145 3.91338 18.3552C3.3275 16.9958 3.03419 15.5441 3.03345 14.0002C3.0327 12.4562 3.32602 11.0045 3.91338 9.64516C4.50075 8.28581 5.29619 7.104 6.2997 6.09975C7.30321 5.09549 8.48502 4.30005 9.84512 3.71343C11.2052 3.12681 12.6569 2.8335 14.2001 2.8335C15.7433 2.8335 17.195 3.12681 18.5551 3.71343C19.9152 4.30005 21.097 5.09549 22.1005 6.09975C23.104 7.104 23.8999 8.28581 24.488 9.64516C25.0761 11.0045 25.369 12.4562 25.3668 14.0002C25.3645 15.5441 25.0712 16.9958 24.4868 18.3552C23.9025 19.7145 23.107 20.8963 22.1005 21.9006C21.094 22.9048 19.9122 23.7006 18.5551 24.288C17.198 24.8754 15.7463 25.1683 14.2001 25.1668ZM14.2001 22.9335C15.2051 22.9335 16.1729 22.7708 17.1034 22.4455C18.034 22.1202 18.8901 21.6501 19.6718 21.0352L7.16511 8.5285C6.55095 9.31016 6.08083 10.1663 5.75477 11.0968C5.4287 12.0274 5.26604 12.9952 5.26678 14.0002C5.26678 16.4941 6.1322 18.6064 7.86303 20.3372C9.59387 22.0681 11.7062 22.9335 14.2001 22.9335ZM21.2351 19.4718C21.8493 18.6902 22.3194 17.8341 22.6455 16.9035C22.9715 15.9729 23.1342 15.0052 23.1334 14.0002C23.1334 11.5063 22.268 9.39391 20.5372 7.66308C18.8064 5.93225 16.694 5.06683 14.2001 5.06683C13.1951 5.06683 12.2273 5.22949 11.2968 5.55481C10.3662 5.88013 9.51012 6.35025 8.72845 6.96516L21.2351 19.4718Z" fill="currentColor"/>
</svg>
