<svg width="16" height="16" viewBox="0 0 16 16" fill="none" xmlns="http://www.w3.org/2000/svg">
<path fill-rule="evenodd" clip-rule="evenodd" d="M8 1.3335C5.486 1.3335 4.22867 1.3335 3.448 2.11483C2.73867 2.8235 2.67334 3.92416 2.66667 6.00016H2C1.82319 6.00016 1.65362 6.0704 1.5286 6.19542C1.40357 6.32045 1.33334 6.49002 1.33334 6.66683V7.3335C1.33334 7.43699 1.35743 7.53907 1.40372 7.63164C1.45 7.72421 1.51721 7.80473 1.6 7.86683L2.66667 8.66683C2.67334 10.7428 2.73867 11.8435 3.448 12.5522C3.60934 12.7142 3.79067 12.8422 4 12.9435V14.0002C4 14.177 4.07024 14.3465 4.19526 14.4716C4.32029 14.5966 4.48986 14.6668 4.66667 14.6668H5.66667C5.84348 14.6668 6.01305 14.5966 6.13807 14.4716C6.2631 14.3465 6.33334 14.177 6.33334 14.0002V13.3215C6.818 13.3335 7.36934 13.3335 8 13.3335C8.63067 13.3335 9.182 13.3335 9.66667 13.3215V14.0002C9.66667 14.177 9.73691 14.3465 9.86193 14.4716C9.98696 14.5966 10.1565 14.6668 10.3333 14.6668H11.3333C11.5101 14.6668 11.6797 14.5966 11.8047 14.4716C11.9298 14.3465 12 14.177 12 14.0002V12.9435C12.2049 12.8454 12.3916 12.713 12.552 12.5522C13.2613 11.8435 13.3273 10.7428 13.3333 8.66683L14.4 7.86683C14.4828 7.80473 14.55 7.72421 14.5963 7.63164C14.6426 7.53907 14.6667 7.43699 14.6667 7.3335V6.66683C14.6667 6.49002 14.5964 6.32045 14.4714 6.19542C14.3464 6.0704 14.1768 6.00016 14 6.00016H13.3333C13.3267 3.92416 13.2613 2.8235 12.552 2.11483C11.7713 1.3335 10.514 1.3335 8 1.3335ZM3.66667 6.3335C3.66667 7.27616 3.66667 7.7475 3.96 8.04016C4.25267 8.3335 4.724 8.3335 5.66667 8.3335H10.3333C11.276 8.3335 11.7473 8.3335 12.04 8.04016C12.3333 7.7475 12.3333 7.27616 12.3333 6.3335V4.66683C12.3333 3.72416 12.3333 3.25283 12.04 2.96016C11.748 2.66683 11.2767 2.66683 10.3333 2.66683H5.66667C4.724 2.66683 4.25267 2.66683 3.96 2.96016C3.66667 3.25216 3.66667 3.7235 3.66667 4.66683V6.3335ZM4.16667 10.6668C4.16667 10.5342 4.21935 10.407 4.31312 10.3133C4.40688 10.2195 4.53406 10.1668 4.66667 10.1668H5.66667C5.79928 10.1668 5.92645 10.2195 6.02022 10.3133C6.11399 10.407 6.16667 10.5342 6.16667 10.6668C6.16667 10.7994 6.11399 10.9266 6.02022 11.0204C5.92645 11.1142 5.79928 11.1668 5.66667 11.1668H4.66667C4.53406 11.1668 4.40688 11.1142 4.31312 11.0204C4.21935 10.9266 4.16667 10.7994 4.16667 10.6668ZM11.8333 10.6668C11.8333 10.5342 11.7807 10.407 11.6869 10.3133C11.5931 10.2195 11.4659 10.1668 11.3333 10.1668H10.3333C10.2007 10.1668 10.0736 10.2195 9.97978 10.3133C9.88601 10.407 9.83333 10.5342 9.83333 10.6668C9.83333 10.7994 9.88601 10.9266 9.97978 11.0204C10.0736 11.1142 10.2007 11.1668 10.3333 11.1668H11.3333C11.4659 11.1668 11.5931 11.1142 11.6869 11.0204C11.7807 10.9266 11.8333 10.7994 11.8333 10.6668Z" fill="currentColor"/>
</svg>
