<svg width="18" height="18" viewBox="0 0 18 18" fill="none" xmlns="http://www.w3.org/2000/svg">
<path d="M5.25 11.25H3C2.80109 11.25 2.61032 11.171 2.46967 11.0303C2.32902 10.8897 2.25 10.6989 2.25 10.5V4.5C2.25 4.30109 2.32902 4.11032 2.46967 3.96967C2.61032 3.82902 2.80109 3.75 3 3.75H12C12.1989 3.75 12.3897 3.82902 12.5303 3.96967C12.671 4.11032 12.75 4.30109 12.75 4.5V6.75" stroke="currentColor" stroke-width="1.5" stroke-linecap="round" stroke-linejoin="round"/>
<path d="M9 14.25H6C5.80109 14.25 5.61032 14.171 5.46967 14.0303C5.32902 13.8897 5.25 13.6989 5.25 13.5V7.5C5.25 7.30109 5.32902 7.11032 5.46967 6.96967C5.61032 6.82902 5.80109 6.75 6 6.75H15C15.1989 6.75 15.3897 6.82902 15.5303 6.96967C15.671 7.11032 15.75 7.30109 15.75 7.5V9.375" stroke="currentColor" stroke-width="1.5" stroke-linecap="round" stroke-linejoin="round"/>
<path d="M11.94 10.0777C11.8665 9.82769 11.7291 9.60113 11.5414 9.42035C11.3537 9.23957 11.1222 9.11081 10.8695 9.04675C10.6169 8.9827 10.352 8.98556 10.1008 9.05505C9.84968 9.12455 9.62096 9.25828 9.4372 9.44307C9.25345 9.62786 9.12101 9.85734 9.05294 10.1089C8.98486 10.3604 8.9835 10.6254 9.04898 10.8776C9.11446 11.1299 9.24453 11.3607 9.42636 11.5474C9.6082 11.7341 9.83554 11.8701 10.086 11.9422M12 14.25H16.5M16.5 14.25L14.25 12M16.5 14.25L14.25 16.5" stroke="currentColor" stroke-width="1.5" stroke-linecap="round" stroke-linejoin="round"/>
</svg>
