<svg width="24" height="24" viewBox="0 0 24 24" fill="none" xmlns="http://www.w3.org/2000/svg">
<path d="M10.875 12C10.875 12.2984 10.9935 12.5845 11.2045 12.7955C11.4155 13.0065 11.7016 13.125 12 13.125C12.2984 13.125 12.5845 13.0065 12.7955 12.7955C13.0065 12.5845 13.125 12.2984 13.125 12C13.125 11.7016 13.0065 11.4155 12.7955 11.2045C12.5845 10.9935 12.2984 10.875 12 10.875C11.7016 10.875 11.4155 10.9935 11.2045 11.2045C10.9935 11.4155 10.875 11.7016 10.875 12ZM15.5625 12C15.5625 12.2984 15.681 12.5845 15.892 12.7955C16.103 13.0065 16.3891 13.125 16.6875 13.125C16.9859 13.125 17.272 13.0065 17.483 12.7955C17.694 12.5845 17.8125 12.2984 17.8125 12C17.8125 11.7016 17.694 11.4155 17.483 11.2045C17.272 10.9935 16.9859 10.875 16.6875 10.875C16.3891 10.875 16.103 10.9935 15.892 11.2045C15.681 11.4155 15.5625 11.7016 15.5625 12ZM6.1875 12C6.1875 12.2984 6.30603 12.5845 6.51701 12.7955C6.72799 13.0065 7.01413 13.125 7.3125 13.125C7.61087 13.125 7.89702 13.0065 8.108 12.7955C8.31898 12.5845 8.4375 12.2984 8.4375 12C8.4375 11.7016 8.31898 11.4155 8.108 11.2045C7.89702 10.9935 7.61087 10.875 7.3125 10.875C7.01413 10.875 6.72799 10.9935 6.51701 11.2045C6.30603 11.4155 6.1875 11.7016 6.1875 12ZM21.6844 7.93125C21.1547 6.67266 20.3953 5.54297 19.4273 4.57266C18.4661 3.60798 17.3251 2.84117 16.0688 2.31563C14.7797 1.77422 13.4109 1.5 12 1.5H11.9531C10.5328 1.50703 9.15703 1.78828 7.86328 2.34141C6.61773 2.87234 5.48736 3.64052 4.53516 4.60312C3.57657 5.57109 2.82422 6.69609 2.30391 7.95C1.76485 9.24844 1.49297 10.6289 1.5 12.0492C1.50796 13.6769 1.89303 15.2806 2.625 16.7344V20.2969C2.625 20.5828 2.73859 20.857 2.94078 21.0592C3.14297 21.2614 3.41719 21.375 3.70313 21.375H7.26797C8.72179 22.107 10.3255 22.492 11.9531 22.5H12.0023C13.4063 22.5 14.768 22.2281 16.05 21.6961C17.3 21.1768 18.4368 20.419 19.3969 19.4648C20.3648 18.5063 21.1266 17.3859 21.6586 16.1367C22.2117 14.843 22.493 13.4672 22.5 12.0469C22.507 10.6195 22.2305 9.23438 21.6844 7.93125ZM18.143 18.1969C16.5 19.8234 14.3203 20.7188 12 20.7188H11.9602C10.5469 20.7117 9.14297 20.3602 7.90313 19.6992L7.70625 19.5938H4.40625V16.2938L4.30078 16.0969C3.63985 14.857 3.28828 13.4531 3.28125 12.0398C3.27188 9.70312 4.16485 7.50937 5.80313 5.85703C7.43907 4.20469 9.62578 3.29062 11.9625 3.28125H12.0023C13.1742 3.28125 14.3109 3.50859 15.382 3.95859C16.4273 4.39687 17.3648 5.02734 18.1711 5.83359C18.975 6.6375 19.6078 7.57734 20.0461 8.62266C20.5008 9.70547 20.7281 10.8539 20.7234 12.0398C20.7094 14.3742 19.793 16.5609 18.143 18.1969Z" fill="black"/>
</svg>
