<svg width="28" height="28" viewBox="0 0 28 28" fill="none" xmlns="http://www.w3.org/2000/svg">
<path fill-rule="evenodd" clip-rule="evenodd" d="M22.3236 7.55248C22.5528 7.73997 22.6981 8.01081 22.7277 8.30545C22.7572 8.60009 22.6685 8.89439 22.481 9.12363L12.431 21.407C12.3323 21.5277 12.2093 21.6264 12.07 21.6967C11.9308 21.767 11.7783 21.8074 11.6225 21.8152C11.4667 21.8229 11.311 21.798 11.1654 21.7419C11.0198 21.6858 10.8876 21.5999 10.7773 21.4896L5.19393 15.9063C5.08728 15.8033 5.00221 15.68 4.94369 15.5438C4.88516 15.4076 4.85436 15.261 4.85307 15.1128C4.85178 14.9645 4.88003 14.8174 4.93618 14.6802C4.99233 14.543 5.07524 14.4183 5.18009 14.3135C5.28494 14.2086 5.40962 14.1257 5.54685 14.0695C5.68408 14.0134 5.83113 13.9851 5.9794 13.9864C6.12767 13.9877 6.2742 14.0185 6.41043 14.077C6.54667 14.1356 6.66989 14.2206 6.7729 14.3273L11.4841 19.0385L20.7524 7.70993C20.9399 7.48073 21.2108 7.33539 21.5054 7.30586C21.8001 7.27634 22.0944 7.36504 22.3236 7.55248Z" fill="currentColor"/>
</svg>
