<svg width="18" height="23" viewBox="0 0 18 23" fill="none" xmlns="http://www.w3.org/2000/svg">
<path fill-rule="evenodd" clip-rule="evenodd" d="M9.2 12.103L15.1217 18.0247C15.4359 18.3389 15.8621 18.5154 16.3065 18.5154C16.7508 18.5154 17.177 18.3389 17.4912 18.0247C17.8055 17.7104 17.982 17.2842 17.982 16.8399C17.982 16.3955 17.8055 15.9693 17.4912 15.6551L11.5673 9.7334L17.4901 3.81172C17.6456 3.65613 17.769 3.47144 17.8531 3.26818C17.9373 3.06492 17.9805 2.84708 17.9805 2.6271C17.9804 2.40712 17.9371 2.1893 17.8528 1.98608C17.7686 1.78286 17.6452 1.59823 17.4896 1.44271C17.334 1.2872 17.1493 1.16385 16.946 1.07971C16.7428 0.995578 16.5249 0.9523 16.305 0.952352C16.085 0.952404 15.8672 0.995784 15.6639 1.08002C15.4607 1.16425 15.2761 1.28768 15.1206 1.44327L9.2 7.36495L3.27831 1.44327C3.12387 1.28322 2.93911 1.15553 2.73479 1.06765C2.53048 0.979768 2.31071 0.933458 2.0883 0.931421C1.8659 0.929384 1.64532 0.971661 1.43943 1.05578C1.23354 1.13991 1.04646 1.26419 0.889119 1.42139C0.731775 1.57858 0.607314 1.76554 0.522996 1.97135C0.438679 2.17716 0.396194 2.39771 0.398021 2.62011C0.399848 2.84252 0.44595 3.06233 0.533637 3.26673C0.621325 3.47113 0.748841 3.65601 0.908746 3.8106L6.83266 9.7334L0.909863 15.6562C0.749958 15.8108 0.622442 15.9957 0.534755 16.2001C0.447067 16.4045 0.400965 16.6243 0.399138 16.8467C0.397311 17.0691 0.439795 17.2896 0.524113 17.4955C0.60843 17.7013 0.732892 17.8882 0.890236 18.0454C1.04758 18.2026 1.23465 18.3269 1.44054 18.411C1.64643 18.4951 1.86702 18.5374 2.08942 18.5354C2.31182 18.5333 2.53159 18.487 2.73591 18.3992C2.94022 18.3113 3.12499 18.1836 3.27943 18.0235L9.2 12.103Z" fill="currentColor"/>
</svg>
