<svg width="23" height="24" viewBox="0 0 23 24" fill="none" xmlns="http://www.w3.org/2000/svg">
<path d="M6 10.5H10.5V24H6V10.5ZM7.5 22.5H9V12H7.5V22.5ZM12 13.5H16.5V24H12V13.5ZM13.5 22.5H15V15H13.5V22.5ZM0 16.5H4.5V24H0V16.5ZM1.5 22.5H3V18H1.5V22.5ZM18 7.5H22.5V24H18V7.5ZM19.5 22.5H21V9H19.5V22.5ZM16.2773 7.27734C16.4258 7.59766 16.5 7.92188 16.5 8.25C16.5 8.5625 16.4414 8.85547 16.3242 9.12891C16.207 9.40234 16.0469 9.64062 15.8438 9.84375C15.6406 10.0469 15.4023 10.207 15.1289 10.3242C14.8555 10.4414 14.5625 10.5 14.25 10.5C13.9375 10.5 13.6445 10.4414 13.3711 10.3242C13.0977 10.207 12.8594 10.0469 12.6562 9.84375C12.4531 9.64062 12.293 9.40234 12.1758 9.12891C12.0586 8.85547 12 8.5625 12 8.25V8.10938C12 8.0625 12.0039 8.01562 12.0117 7.96875L9.80859 6.86719C9.60547 7.07031 9.36719 7.22656 9.09375 7.33594C8.82031 7.44531 8.53906 7.5 8.25 7.5C7.92188 7.5 7.59766 7.42578 7.27734 7.27734L4.27734 10.2773C4.42578 10.5977 4.5 10.9219 4.5 11.25C4.5 11.5625 4.44141 11.8555 4.32422 12.1289C4.20703 12.4023 4.04688 12.6406 3.84375 12.8438C3.64062 13.0469 3.40234 13.207 3.12891 13.3242C2.85547 13.4414 2.5625 13.5 2.25 13.5C1.9375 13.5 1.64453 13.4414 1.37109 13.3242C1.09766 13.207 0.859375 13.0469 0.65625 12.8438C0.453125 12.6406 0.292969 12.4023 0.175781 12.1289C0.0585938 11.8555 0 11.5625 0 11.25C0 10.9375 0.0585938 10.6445 0.175781 10.3711C0.292969 10.0977 0.453125 9.85938 0.65625 9.65625C0.859375 9.45312 1.09766 9.29297 1.37109 9.17578C1.64453 9.05859 1.9375 9 2.25 9C2.57812 9 2.90234 9.07422 3.22266 9.22266L6.22266 6.22266C6.07422 5.90234 6 5.57812 6 5.25C6 4.9375 6.05859 4.64453 6.17578 4.37109C6.29297 4.09766 6.45312 3.85938 6.65625 3.65625C6.85938 3.45312 7.09766 3.29297 7.37109 3.17578C7.64453 3.05859 7.9375 3 8.25 3C8.5625 3 8.85547 3.05859 9.12891 3.17578C9.40234 3.29297 9.64062 3.45312 9.84375 3.65625C10.0469 3.85938 10.207 4.09766 10.3242 4.37109C10.4414 4.64453 10.5 4.9375 10.5 5.25V5.39062C10.5 5.4375 10.4961 5.48438 10.4883 5.53125L12.6914 6.63281C12.8945 6.42969 13.1328 6.27344 13.4062 6.16406C13.6797 6.05469 13.9609 6 14.25 6C14.5781 6 14.9023 6.07422 15.2227 6.22266L18.2227 3.22266C18.0742 2.90234 18 2.57812 18 2.25C18 1.9375 18.0586 1.64453 18.1758 1.37109C18.293 1.09766 18.4531 0.859375 18.6562 0.65625C18.8594 0.453125 19.0977 0.292969 19.3711 0.175781C19.6445 0.0585938 19.9375 0 20.25 0C20.5625 0 20.8555 0.0585938 21.1289 0.175781C21.4023 0.292969 21.6406 0.453125 21.8438 0.65625C22.0469 0.859375 22.207 1.09766 22.3242 1.37109C22.4414 1.64453 22.5 1.9375 22.5 2.25C22.5 2.5625 22.4414 2.85547 22.3242 3.12891C22.207 3.40234 22.0469 3.64062 21.8438 3.84375C21.6406 4.04688 21.4023 4.20703 21.1289 4.32422C20.8555 4.44141 20.5625 4.5 20.25 4.5C19.9219 4.5 19.5977 4.42578 19.2773 4.27734L16.2773 7.27734ZM2.25 12C2.45312 12 2.62891 11.9258 2.77734 11.7773C2.92578 11.6289 3 11.4531 3 11.25C3 11.0469 2.92578 10.8711 2.77734 10.7227C2.62891 10.5742 2.45312 10.5 2.25 10.5C2.04688 10.5 1.87109 10.5742 1.72266 10.7227C1.57422 10.8711 1.5 11.0469 1.5 11.25C1.5 11.4531 1.57422 11.6289 1.72266 11.7773C1.87109 11.9258 2.04688 12 2.25 12ZM20.25 1.5C20.0469 1.5 19.8711 1.57422 19.7227 1.72266C19.5742 1.87109 19.5 2.04688 19.5 2.25C19.5 2.45312 19.5742 2.62891 19.7227 2.77734C19.8711 2.92578 20.0469 3 20.25 3C20.4531 3 20.6289 2.92578 20.7773 2.77734C20.9258 2.62891 21 2.45312 21 2.25C21 2.04688 20.9258 1.87109 20.7773 1.72266C20.6289 1.57422 20.4531 1.5 20.25 1.5ZM8.25 6C8.45312 6 8.62891 5.92578 8.77734 5.77734C8.92578 5.62891 9 5.45312 9 5.25C9 5.04688 8.92578 4.87109 8.77734 4.72266C8.62891 4.57422 8.45312 4.5 8.25 4.5C8.04688 4.5 7.87109 4.57422 7.72266 4.72266C7.57422 4.87109 7.5 5.04688 7.5 5.25C7.5 5.45312 7.57422 5.62891 7.72266 5.77734C7.87109 5.92578 8.04688 6 8.25 6ZM14.25 9C14.4531 9 14.6289 8.92578 14.7773 8.77734C14.9258 8.62891 15 8.45312 15 8.25C15 8.04688 14.9258 7.87109 14.7773 7.72266C14.6289 7.57422 14.4531 7.5 14.25 7.5C14.0469 7.5 13.8711 7.57422 13.7227 7.72266C13.5742 7.87109 13.5 8.04688 13.5 8.25C13.5 8.45312 13.5742 8.62891 13.7227 8.77734C13.8711 8.92578 14.0469 9 14.25 9Z" fill="black"/>
</svg>
