<svg width="20" height="20" viewBox="0 0 20 20" fill="none" xmlns="http://www.w3.org/2000/svg">
<path d="M5.8335 17.5C5.37517 17.5 4.98294 17.3369 4.65683 17.0108C4.33072 16.6847 4.16739 16.2922 4.16683 15.8333V5C3.93072 5 3.73294 4.92 3.5735 4.76C3.41405 4.6 3.33405 4.40222 3.3335 4.16667C3.33294 3.93111 3.41294 3.73333 3.5735 3.57333C3.73405 3.41333 3.93183 3.33333 4.16683 3.33333H7.50017C7.50017 3.09722 7.58017 2.89944 7.74017 2.74C7.90017 2.58056 8.09794 2.50056 8.3335 2.5H11.6668C11.9029 2.5 12.101 2.58 12.261 2.74C12.421 2.9 12.5007 3.09778 12.5002 3.33333H15.8335C16.0696 3.33333 16.2677 3.41333 16.4277 3.57333C16.5877 3.73333 16.6674 3.93111 16.6668 4.16667C16.6663 4.40222 16.5863 4.60028 16.4268 4.76083C16.2674 4.92139 16.0696 5.00111 15.8335 5V15.8333C15.8335 16.2917 15.6704 16.6842 15.3443 17.0108C15.0182 17.3375 14.6257 17.5006 14.1668 17.5H5.8335ZM14.1668 5H5.8335V15.8333H14.1668V5ZM8.3335 14.1667C8.56961 14.1667 8.76767 14.0867 8.92767 13.9267C9.08767 13.7667 9.16739 13.5689 9.16683 13.3333V7.5C9.16683 7.26389 9.08683 7.06611 8.92683 6.90667C8.76683 6.74722 8.56905 6.66722 8.3335 6.66667C8.09794 6.66611 7.90017 6.74611 7.74017 6.90667C7.58017 7.06722 7.50017 7.265 7.50017 7.5V13.3333C7.50017 13.5694 7.58017 13.7675 7.74017 13.9275C7.90017 14.0875 8.09794 14.1672 8.3335 14.1667ZM11.6668 14.1667C11.9029 14.1667 12.101 14.0867 12.261 13.9267C12.421 13.7667 12.5007 13.5689 12.5002 13.3333V7.5C12.5002 7.26389 12.4202 7.06611 12.2602 6.90667C12.1002 6.74722 11.9024 6.66722 11.6668 6.66667C11.4313 6.66611 11.2335 6.74611 11.0735 6.90667C10.9135 7.06722 10.8335 7.265 10.8335 7.5V13.3333C10.8335 13.5694 10.9135 13.7675 11.0735 13.9275C11.2335 14.0875 11.4313 14.1672 11.6668 14.1667Z" fill="currentColor"/>
</svg>
