<svg width="20" height="20" viewBox="0 0 20 20" fill="none" xmlns="http://www.w3.org/2000/svg">
<path d="M10 12.5C11.3807 12.5 12.5 11.3807 12.5 10C12.5 8.61929 11.3807 7.5 10 7.5C8.61929 7.5 7.5 8.61929 7.5 10C7.5 11.3807 8.61929 12.5 10 12.5Z" stroke="currentColor" stroke-width="1.5"/>
<path d="M16.8233 9.11167C17.1467 9.505 17.3083 9.70083 17.3083 10C17.3083 10.2992 17.1467 10.495 16.8233 10.8883C15.64 12.325 13.03 15 9.99998 15C6.96998 15 4.35998 12.325 3.17665 10.8883C2.85332 10.495 2.69165 10.2992 2.69165 10C2.69165 9.70083 2.85332 9.505 3.17665 9.11167C4.35998 7.675 6.96998 5 9.99998 5C13.03 5 15.64 7.675 16.8233 9.11167Z" stroke="currentColor" stroke-width="1.5"/>
</svg>
