<svg width="20" height="20" viewBox="0 0 20 20" fill="none" xmlns="http://www.w3.org/2000/svg">
<g clip-path="url(#clip0_515_6571)">
<path fill-rule="evenodd" clip-rule="evenodd" d="M6.91086 10.589C6.75463 10.4328 6.66687 10.2208 6.66687 9.99988C6.66687 9.77891 6.75463 9.56699 6.91086 9.41071L11.625 4.69655C11.7019 4.61695 11.7939 4.55347 11.8955 4.50979C11.9972 4.46612 12.1065 4.44313 12.2172 4.44217C12.3278 4.44121 12.4376 4.46229 12.54 4.50419C12.6424 4.5461 12.7354 4.60797 12.8137 4.68622C12.8919 4.76446 12.9538 4.8575 12.9957 4.95992C13.0376 5.06233 13.0587 5.17206 13.0577 5.28271C13.0568 5.39336 13.0338 5.50271 12.9901 5.60438C12.9464 5.70605 12.883 5.79801 12.8034 5.87488L8.67836 9.99988L12.8034 14.1249C12.9552 14.282 13.0392 14.4925 13.0373 14.711C13.0354 14.9295 12.9477 15.1386 12.7932 15.2931C12.6387 15.4476 12.4297 15.5352 12.2112 15.5371C11.9927 15.539 11.7822 15.455 11.625 15.3032L6.91086 10.589Z" fill="currentColor"/>
</g>
<defs>
<clipPath id="clip0_515_6571">
<rect width="20" height="20" fill="white"/>
</clipPath>
</defs>
</svg>
