<svg width="25" height="25" viewBox="0 0 25 25" fill="none" xmlns="http://www.w3.org/2000/svg">
<path d="M20.6 18.1667C20.9852 18.1669 21.3556 18.3152 21.6344 18.5811C21.9132 18.8469 22.079 19.2098 22.0975 19.5946C22.116 19.9794 21.9858 20.3565 21.7338 20.6479C21.4818 20.9392 21.1274 21.1225 20.744 21.1597L20.6 21.1667H4.60001C4.21479 21.1665 3.84441 21.0181 3.56562 20.7523C3.28683 20.4864 3.12099 20.1235 3.10248 19.7388C3.08397 19.354 3.2142 18.9768 3.46618 18.6855C3.71817 18.3941 4.07259 18.2108 4.45601 18.1737L4.60001 18.1667H20.6ZM20.6 11.1667C20.9978 11.1667 21.3794 11.3247 21.6607 11.606C21.942 11.8873 22.1 12.2688 22.1 12.6667C22.1 13.0645 21.942 13.446 21.6607 13.7273C21.3794 14.0086 20.9978 14.1667 20.6 14.1667H4.60001C4.20218 14.1667 3.82065 14.0086 3.53935 13.7273C3.25804 13.446 3.10001 13.0645 3.10001 12.6667C3.10001 12.2688 3.25804 11.8873 3.53935 11.606C3.82065 11.3247 4.20218 11.1667 4.60001 11.1667H20.6ZM20.6 4.16667C20.9978 4.16667 21.3794 4.32471 21.6607 4.60601C21.942 4.88732 22.1 5.26885 22.1 5.66667C22.1 6.0645 21.942 6.44603 21.6607 6.72733C21.3794 7.00864 20.9978 7.16667 20.6 7.16667H4.60001C4.20218 7.16667 3.82065 7.00864 3.53935 6.72733C3.25804 6.44603 3.10001 6.0645 3.10001 5.66667C3.10001 5.26885 3.25804 4.88732 3.53935 4.60601C3.82065 4.32471 4.20218 4.16667 4.60001 4.16667H20.6Z" fill="currentColor"/>
</svg>
