<svg width="25" height="25" viewBox="0 0 25 25" fill="none" xmlns="http://www.w3.org/2000/svg">
<path d="M10.946 3.91467C11.0954 3.54538 11.3517 3.22913 11.682 3.00645C12.0123 2.78376 12.4016 2.66479 12.8 2.66479C13.1984 2.66479 13.5877 2.78376 13.918 3.00645C14.2483 3.22913 14.5046 3.54538 14.654 3.91467C16.133 4.32091 17.4377 5.20166 18.3674 6.42154C19.2971 7.64142 19.8004 9.13289 19.8 10.6667V15.3637L21.632 18.1117C21.7325 18.2623 21.7902 18.4373 21.799 18.6182C21.8078 18.799 21.7673 18.9788 21.6819 19.1384C21.5965 19.2981 21.4693 19.4315 21.314 19.5245C21.1587 19.6176 20.981 19.6667 20.8 19.6667H16.265C16.1446 20.4998 15.7281 21.2616 15.0917 21.8126C14.4553 22.3636 13.6418 22.6669 12.8 22.6669C11.9582 22.6669 11.1447 22.3636 10.5083 21.8126C9.87194 21.2616 9.4554 20.4998 9.335 19.6667H4.8C4.61896 19.6667 4.4413 19.6176 4.28599 19.5245C4.13068 19.4315 4.00354 19.2981 3.91813 19.1384C3.83272 18.9788 3.79224 18.799 3.80103 18.6182C3.80981 18.4373 3.86752 18.2623 3.968 18.1117L5.8 15.3637V10.6667C5.8 7.44267 7.98 4.72667 10.946 3.91467ZM11.386 19.6667C11.4893 19.9593 11.6808 20.2127 11.9341 20.392C12.1875 20.5712 12.4902 20.6675 12.8005 20.6675C13.1108 20.6675 13.4135 20.5712 13.6669 20.392C13.9202 20.2127 14.1117 19.9593 14.215 19.6667H11.386ZM12.8 5.66667C11.4739 5.66667 10.2021 6.19346 9.26447 7.13114C8.32678 8.06882 7.8 9.34059 7.8 10.6667V15.6667C7.80004 15.8642 7.74159 16.0573 7.632 16.2217L6.669 17.6667H18.93L17.967 16.2217C17.8578 16.0572 17.7997 15.8641 17.8 15.6667V10.6667C17.8 9.34059 17.2732 8.06882 16.3355 7.13114C15.3979 6.19346 14.1261 5.66667 12.8 5.66667Z" fill="currentColor"/>
</svg>
