<svg width="20" height="20" viewBox="0 0 20 20" fill="none" xmlns="http://www.w3.org/2000/svg">
<g clip-path="url(#clip0_515_6585)">
<path fill-rule="evenodd" clip-rule="evenodd" d="M13.0892 9.41074C13.2454 9.56701 13.3332 9.77894 13.3332 9.99991C13.3332 10.2209 13.2454 10.4328 13.0892 10.5891L8.375 15.3032C8.29813 15.3828 8.20617 15.4463 8.1045 15.49C8.00283 15.5337 7.89348 15.5567 7.78284 15.5576C7.67219 15.5586 7.56245 15.5375 7.46004 15.4956C7.35763 15.4537 7.26458 15.3918 7.18634 15.3136C7.10809 15.2353 7.04622 15.1423 7.00432 15.0399C6.96242 14.9375 6.94133 14.8277 6.94229 14.7171C6.94325 14.6064 6.96624 14.4971 7.00992 14.3954C7.05359 14.2937 7.11708 14.2018 7.19667 14.1249L11.3217 9.99991L7.19667 5.87491C7.04487 5.71774 6.96087 5.50724 6.96277 5.28874C6.96467 5.07024 7.05231 4.86123 7.20682 4.70672C7.36133 4.55222 7.57034 4.46458 7.78883 4.46268C8.00733 4.46078 8.21783 4.54477 8.375 4.69657L13.0892 9.41074Z" fill="currentColor"/>
</g>
<defs>
<clipPath id="clip0_515_6585">
<rect width="20" height="20" fill="white"/>
</clipPath>
</defs>
</svg>
