<svg width="25" height="25" viewBox="0 0 25 25" fill="none" xmlns="http://www.w3.org/2000/svg">
<path d="M21.4 21.6667L17.057 17.3237M17.057 17.3237C17.7999 16.5808 18.3892 15.6988 18.7912 14.7282C19.1933 13.7576 19.4002 12.7173 19.4002 11.6667C19.4002 10.6161 19.1933 9.57576 18.7912 8.60513C18.3892 7.6345 17.7999 6.75256 17.057 6.00967C16.3141 5.26678 15.4322 4.67749 14.4616 4.27545C13.4909 3.8734 12.4506 3.66647 11.4 3.66647C10.3494 3.66647 9.3091 3.8734 8.33847 4.27545C7.36784 4.67749 6.4859 5.26678 5.74302 6.00967C4.24269 7.51 3.39981 9.54489 3.39981 11.6667C3.39981 13.7885 4.24269 15.8233 5.74302 17.3237C7.24335 18.824 9.27823 19.6669 11.4 19.6669C13.5218 19.6669 15.5567 18.824 17.057 17.3237Z" stroke="currentColor" stroke-width="2.5" stroke-linecap="round" stroke-linejoin="round"/>
</svg>
