<svg width="28" height="28" viewBox="0 0 28 28" fill="none" xmlns="http://www.w3.org/2000/svg">
<path fill-rule="evenodd" clip-rule="evenodd" d="M6.89355 21.1067C7.82678 22.04 8.93469 22.7802 10.154 23.2853C11.3734 23.7904 12.6802 24.0503 14 24.0503C15.3198 24.0503 16.6267 23.7904 17.846 23.2853C19.0653 22.7802 20.1732 22.04 21.1065 21.1067C22.0397 20.1735 22.78 19.0656 23.2851 17.8462C23.7901 16.6269 24.0501 15.3201 24.0501 14.0003C24.0501 12.6805 23.7901 11.3736 23.2851 10.1543C22.78 8.93494 22.0397 7.82702 21.1065 6.89379C19.2217 5.00904 16.6655 3.9502 14 3.9502C11.3346 3.9502 8.7783 5.00904 6.89355 6.89379C5.00879 8.77854 3.94995 11.3348 3.94995 14.0003C3.94995 16.6657 5.00879 19.222 6.89355 21.1067ZM9.31783 20.2614C10.8234 21.3882 12.6846 21.9346 14.5603 21.8003C16.4361 21.6661 18.2005 20.8602 19.5303 19.5305C20.86 18.2008 21.6659 16.4363 21.8001 14.5606C21.9343 12.6849 21.388 10.8236 20.2612 9.31807L17.1579 12.4213C16.9473 12.6247 16.6653 12.7373 16.3725 12.7347C16.0797 12.7322 15.7996 12.6147 15.5926 12.4077C15.3855 12.2006 15.2681 11.9206 15.2656 11.6278C15.263 11.335 15.3756 11.0529 15.579 10.8423L18.6811 7.73911C17.1752 6.61531 15.315 6.07138 13.4409 6.20687C11.5668 6.34235 9.80419 7.14819 8.47561 8.4769C7.14704 9.80561 6.34138 11.5683 6.20609 13.4424C6.07079 15.3165 6.61491 17.1767 7.73886 18.6824L10.8421 15.5792C11.0527 15.3758 11.3348 15.2633 11.6275 15.2658C11.9203 15.2683 12.2004 15.3858 12.4074 15.5928C12.6145 15.7999 12.7319 16.0799 12.7345 16.3727C12.737 16.6655 12.6245 16.9476 12.421 17.1582L9.31783 20.2614Z" fill="currentColor"/>
</svg>
