<svg width="18" height="18" viewBox="0 0 18 18" fill="none" xmlns="http://www.w3.org/2000/svg">
<path d="M8.80172 11.0348C9.5084 10.4408 10.0153 9.64387 10.2537 8.75201C10.492 7.86015 10.4503 6.91656 10.1342 6.0492C9.81811 5.18185 9.24289 4.4327 8.48656 3.90336C7.73024 3.37401 6.82942 3.09009 5.90625 3.09009C4.98309 3.09009 4.08226 3.37401 3.32594 3.90336C2.56962 4.4327 1.9944 5.18185 1.67829 6.0492C1.36218 6.91656 1.32048 7.86015 1.55885 8.75201C1.79721 9.64387 2.3041 10.4408 3.01078 11.0348C1.90729 11.5338 0.950991 12.3087 0.234144 13.2848C0.101742 13.4653 0.0464357 13.6909 0.0803901 13.9121C0.114344 14.1333 0.234779 14.3319 0.415198 14.4643C0.595618 14.5967 0.821244 14.652 1.04244 14.6181C1.26364 14.5841 1.46229 14.4637 1.59469 14.2833C2.09091 13.6055 2.73991 13.0544 3.48903 12.6744C4.23815 12.2944 5.06629 12.0964 5.90625 12.0964C6.74622 12.0964 7.57436 12.2944 8.32347 12.6744C9.07259 13.0544 9.72159 13.6055 10.2178 14.2833C10.3502 14.4638 10.5489 14.5843 10.7702 14.6183C10.9914 14.6523 11.2171 14.5971 11.3977 14.4647C11.5782 14.3323 11.6987 14.1336 11.7327 13.9123C11.7667 13.6911 11.7115 13.4653 11.5791 13.2848C10.8618 12.3088 9.90531 11.534 8.80172 11.0348ZM3.09375 7.59374C3.09375 7.03748 3.2587 6.49371 3.56774 6.0312C3.87679 5.56868 4.31604 5.2082 4.82996 4.99533C5.34387 4.78246 5.90937 4.72676 6.45494 4.83528C7.00052 4.9438 7.50166 5.21167 7.89499 5.605C8.28833 5.99834 8.55619 6.49948 8.66471 7.04505C8.77323 7.59062 8.71754 8.15612 8.50466 8.67004C8.29179 9.18395 7.93131 9.62321 7.46879 9.93225C7.00628 10.2413 6.46251 10.4062 5.90625 10.4062C5.16033 10.4062 4.44496 10.1099 3.91752 9.58248C3.39007 9.05503 3.09375 8.33966 3.09375 7.59374ZM17.5852 14.4612C17.4958 14.5268 17.3945 14.5742 17.2868 14.6006C17.1792 14.6271 17.0674 14.632 16.9578 14.6153C16.8482 14.5985 16.743 14.5603 16.6482 14.5028C16.5534 14.4454 16.4709 14.3698 16.4053 14.2805C15.9079 13.604 15.2586 13.0538 14.5098 12.674C13.7609 12.2942 12.9334 12.0955 12.0938 12.0937C11.87 12.0937 11.6554 12.0048 11.4971 11.8466C11.3389 11.6884 11.25 11.4738 11.25 11.25C11.25 11.0262 11.3389 10.8116 11.4971 10.6534C11.6554 10.4951 11.87 10.4062 12.0938 10.4062C12.4935 10.4055 12.8885 10.3196 13.2524 10.1542C13.6164 9.9888 13.9409 9.74771 14.2043 9.44702C14.4677 9.14633 14.664 8.79294 14.7801 8.41041C14.8961 8.02788 14.9293 7.625 14.8774 7.22863C14.8255 6.83226 14.6897 6.4515 14.4791 6.11175C14.2685 5.77199 13.9878 5.48105 13.6559 5.2583C13.3239 5.03556 12.9483 4.88614 12.5541 4.82C12.1598 4.75386 11.756 4.77253 11.3695 4.87475C11.2616 4.90598 11.1485 4.91533 11.0369 4.90226C10.9253 4.8892 10.8174 4.85397 10.7196 4.79865C10.6218 4.74333 10.5361 4.66903 10.4674 4.58011C10.3987 4.4912 10.3484 4.38945 10.3196 4.28086C10.2907 4.17226 10.2839 4.05899 10.2994 3.94771C10.3149 3.83642 10.3525 3.72935 10.41 3.63279C10.4674 3.53623 10.5436 3.45212 10.634 3.38539C10.7244 3.31866 10.8272 3.27066 10.9364 3.24421C11.9246 2.98236 12.9725 3.06481 13.9076 3.47798C14.8428 3.89114 15.6093 4.6104 16.0811 5.51733C16.5529 6.42427 16.7018 7.46482 16.5034 8.46769C16.3049 9.47055 15.7709 10.376 14.9892 11.0348C16.0927 11.5338 17.049 12.3087 17.7659 13.2848C17.8973 13.465 17.9521 13.6899 17.9182 13.9103C17.8844 14.1307 17.7646 14.3288 17.5852 14.4612Z" fill="currentColor"/>
</svg>
