<svg width="16" height="16" viewBox="0 0 16 16" fill="none" xmlns="http://www.w3.org/2000/svg">
<path d="M8 13.9998C7.53333 13.9998 7.13889 13.8387 6.81667 13.5165C6.49445 13.1943 6.33333 12.7998 6.33333 12.3332C6.33333 11.8665 6.49445 11.4721 6.81667 11.1498C7.13889 10.8276 7.53333 10.6665 8 10.6665C8.46667 10.6665 8.86111 10.8276 9.18333 11.1498C9.50556 11.4721 9.66667 11.8665 9.66667 12.3332C9.66667 12.7998 9.50556 13.1943 9.18333 13.5165C8.86111 13.8387 8.46667 13.9998 8 13.9998ZM8 6.6665C8.83333 6.6665 9.62511 6.79984 10.3753 7.0665C11.1256 7.33317 11.806 7.69984 12.4167 8.1665C12.6389 8.33317 12.7529 8.55273 12.7587 8.82517C12.7644 9.09761 12.6671 9.33361 12.4667 9.53317C12.2778 9.72206 12.0444 9.81939 11.7667 9.82517C11.4889 9.83095 11.2389 9.75584 11.0167 9.59984C10.5944 9.31095 10.1278 9.08317 9.61667 8.9165C9.10556 8.74984 8.56667 8.6665 8 8.6665C7.43333 8.6665 6.89445 8.74984 6.38333 8.9165C5.87222 9.08317 5.40556 9.31095 4.98333 9.59984C4.76111 9.75539 4.51111 9.82761 4.23333 9.8165C3.95556 9.80539 3.72222 9.70539 3.53333 9.5165C3.34445 9.3165 3.25 9.0805 3.25 8.8085C3.25 8.5365 3.36111 8.31695 3.58333 8.14984C4.19445 7.68317 4.87511 7.31917 5.62533 7.05784C6.37556 6.7965 7.16711 6.66606 8 6.6665ZM8 2.6665C9.38889 2.6665 10.6973 2.89428 11.9253 3.34984C13.1533 3.80539 14.256 4.44984 15.2333 5.28317C15.4556 5.47206 15.5722 5.70539 15.5833 5.98317C15.5944 6.26095 15.5 6.49984 15.3 6.69984C15.1111 6.88873 14.8778 6.98606 14.6 6.99184C14.3222 6.99761 14.0722 6.91139 13.85 6.73317C13.05 6.07762 12.1529 5.56939 11.1587 5.2085C10.1644 4.84762 9.11156 4.66695 8 4.6665C6.88845 4.66606 5.83578 4.84673 4.842 5.2085C3.84822 5.57028 2.95089 6.0785 2.15 6.73317C1.92778 6.91095 1.67778 6.99717 1.4 6.99184C1.12222 6.9865 0.88889 6.88917 0.700001 6.69984C0.500001 6.49984 0.405557 6.26095 0.416668 5.98317C0.427779 5.70539 0.544445 5.47206 0.766668 5.28317C1.74445 4.44984 2.84733 3.80539 4.07533 3.34984C5.30333 2.89428 6.61156 2.6665 8 2.6665Z" fill="currentColor"/>
</svg>
